<?xml version="1.0" standalone="no"?>
<!DOCTYPE svg PUBLIC "-//W3C//DTD SVG 20010904//EN"
 "http://www.w3.org/TR/2001/REC-SVG-20010904/DTD/svg10.dtd">
<svg version="1.0" xmlns="http://www.w3.org/2000/svg"
 width="181.000000pt" height="181.000000pt" viewBox="0 0 181.000000 181.000000"
 preserveAspectRatio="xMidYMid meet">
<metadata>
Created by potrace 1.11, written by Peter Selinger 2001-2013
</metadata>
<g transform="translate(0.000000,181.000000) scale(0.100000,-0.100000)"
fill="#000000" stroke="none">
<path d="M1400 1782 c0 -5 -72 -83 -160 -173 -155 -159 -238 -265 -294 -376
-26 -52 -69 -202 -81 -283 -4 -25 -8 -47 -10 -50 -1 -3 -6 -32 -10 -65 -16
-146 -30 -198 -73 -266 -16 -24 -47 -79 -71 -121 -23 -43 -45 -79 -49 -82 -4
-2 -7 30 -7 72 -1 43 -4 104 -8 136 -7 59 -7 59 30 91 35 30 37 35 38 94 0 56
-3 65 -28 87 -32 27 -72 31 -122 10 -44 -19 -68 -57 -69 -111 0 -36 5 -50 29
-75 16 -16 34 -30 41 -30 29 0 40 -42 49 -180 2 -36 1 -74 -2 -84 -5 -17 -9
-14 -28 19 -18 28 -22 49 -20 82 3 34 -1 49 -16 64 -51 51 -138 -12 -118 -85
10 -36 24 -46 66 -46 28 0 35 -7 61 -52 17 -29 32 -70 35 -90 5 -37 -6 -64
-92 -223 -12 -24 -17 -41 -11 -43 20 -7 39 7 54 40 32 66 74 106 131 124 48
15 58 16 82 4 44 -22 63 -41 63 -65 0 -50 44 -73 92 -49 33 17 48 43 48 83 0
44 -33 64 -83 50 -37 -10 -77 1 -77 21 0 11 152 90 173 90 7 0 20 -8 29 -19
42 -50 143 -28 180 40 42 75 3 179 -67 179 -39 0 -95 -36 -112 -73 -7 -15 -19
-39 -25 -53 -13 -28 -101 -84 -113 -72 -4 3 1 17 10 31 8 13 17 34 20 45 3 18
1 20 -14 10 -9 -6 -27 -25 -39 -42 -39 -56 -95 -108 -136 -127 -38 -17 -76
-25 -76 -15 0 10 68 141 131 251 107 190 112 196 240 261 129 66 190 122 250
229 54 97 77 176 94 325 2 25 7 61 10 80 2 19 7 62 10 95 3 33 21 112 39 175
44 145 46 163 24 168 -10 2 -18 -1 -18 -6z m-147 -249 c-3 -10 -76 -162 -163
-338 -86 -176 -161 -331 -167 -345 -24 -52 -14 36 18 163 54 218 88 286 217
437 47 55 91 99 99 100 1 0 0 -8 -4 -17z m46 -133 c-5 -33 -11 -73 -14 -88 -2
-15 -7 -59 -10 -97 -13 -159 -72 -285 -172 -365 -76 -61 -140 -100 -166 -100
-15 0 -3 30 66 163 78 149 213 411 266 515 12 23 25 40 30 38 4 -3 4 -32 0
-66z m-651 -619 c5 -36 -25 -57 -50 -34 -21 19 -24 49 -5 57 27 11 52 1 55
-23z m485 -389 c-9 -26 -24 -42 -34 -36 -14 8 -11 62 4 67 18 7 37 -12 30 -31z"/>
</g>
</svg>
